# 3ds Max Wavefront OBJ Exporter v0.97b - (c)2007 guruware
# File Created: 21.09.2015 14:10:16

mtllib 3d-model.mtl

#
# object Group_002
#

v  -123.2860 20.1720 -15.6164
v  -123.2860 20.1720 170.9556
v  123.2860 20.1720 170.9556
v  123.2860 20.1720 -15.6164
v  -123.2860 100.1720 170.9556
v  123.2860 100.1720 170.9556
v  123.2860 100.1720 -15.6164
v  -123.2860 100.1720 -15.6164
v  -130.0000 100.1720 -22.3304
v  -130.0000 100.1720 177.6696
v  130.0000 100.1720 177.6696
v  130.0000 100.1720 -22.3304
v  -130.0000 0.1720 177.6696
v  -130.0000 0.1720 -22.3304
v  130.0000 0.1720 -22.3304
v  130.0000 0.1720 177.6696
# 16 vertices

vn 0.0000 1.0000 -0.0000
vn 0.0000 0.0000 -1.0000
vn -1.0000 0.0000 -0.0000
vn 0.0000 0.0000 1.0000
vn 1.0000 0.0000 -0.0000
vn 0.0000 -1.0000 -0.0000
# 6 vertex normals

vt 0.0661 1.9024 0.0000
vt 0.0661 0.0661 0.0000
vt 2.4930 0.0661 0.0000
vt 2.4930 1.9024 0.0000
vt -2.4930 0.1969 0.0000
vt -0.0661 0.1969 0.0000
vt -0.0661 0.9843 0.0000
vt -2.4930 0.9843 0.0000
vt -1.9024 0.9843 0.0000
vt -1.9024 0.1969 0.0000
vt 0.0661 0.1969 0.0000
vt 2.4930 0.1969 0.0000
vt 2.4930 0.9843 0.0000
vt 0.0661 0.9843 0.0000
vt 1.9024 0.1969 0.0000
vt 1.9024 0.9843 0.0000
vt 0.0000 1.9685 0.0000
vt 0.0000 0.0000 0.0000
vt 2.5591 0.0000 0.0000
vt 2.5591 1.9685 0.0000
vt 0.0000 0.9843 0.0000
vt -1.9685 0.9843 0.0000
vt -1.9685 0.0000 0.0000
vt -2.5591 1.9685 0.0000
vt -2.5591 0.0000 0.0000
vt -2.5591 0.9843 0.0000
vt 1.9685 0.0000 0.0000
vt 1.9685 0.9843 0.0000
vt 2.5591 0.9843 0.0000
# 29 texture coords

g Group_002
usemtl wire_224086086
s off
f 1/1/1 2/2/1 3/3/1 4/4/1 
f 3/5/2 2/6/2 5/7/2 6/8/2 
f 3/6/3 6/7/3 7/9/3 4/10/3 
f 1/11/4 4/12/4 7/13/4 8/14/4 
f 5/14/5 2/11/5 1/15/5 8/16/5 
f 5/2/1 9/17/1 10/18/1 11/19/1 
f 6/3/1 5/2/1 11/19/1 7/4/1 
f 7/4/1 11/19/1 12/20/1 8/1/1 
f 8/1/1 12/20/1 9/17/1 5/2/1 
f 13/18/3 10/21/3 9/22/3 14/23/3 
f 13/18/6 14/17/6 15/24/6 16/25/6 
f 15/25/2 14/18/2 9/21/2 12/26/2 
f 11/21/5 16/18/5 15/27/5 12/28/5 
f 13/18/4 16/19/4 11/29/4 10/21/4 
# 14 polygons

#
# object Group_001
#

v  -123.2860 145.6389 -15.4294
v  -123.2860 27.4677 -159.8063
v  123.2860 27.4677 -159.8063
v  123.2860 145.6389 -15.4294
v  -123.2860 4.2525 -140.8049
v  123.2860 4.2525 -140.8049
v  123.2860 122.4237 3.5720
v  -123.2860 122.4237 3.5720
v  -130.0000 38.6920 -177.6695
v  -130.0000 0.0000 -146.0005
v  -130.0000 126.6762 8.7676
v  -130.0000 165.3682 -22.9015
v  130.0000 165.3682 -22.9015
v  130.0000 38.6920 -177.6695
v  130.0000 0.0000 -146.0005
v  130.0000 126.6762 8.7676
# 16 vertices

vn 0.0000 -0.7738 0.6334
vn 0.0000 0.6334 0.7738
vn -1.0000 0.0000 -0.0000
vn 0.0000 -0.6334 -0.7738
vn 0.0000 0.7738 -0.6334
vn 1.0000 0.0000 -0.0000
# 6 vertex normals

vt 0.0610 1.7571 0.0000
vt 0.0610 0.0610 0.0000
vt 2.3026 0.0610 0.0000
vt 2.3026 1.7571 0.0000
vt -2.3026 0.1818 0.0000
vt -0.0610 0.1818 0.0000
vt -0.0610 0.4545 0.0000
vt -2.3026 0.4545 0.0000
vt -1.7571 0.4545 0.0000
vt -1.7571 0.1818 0.0000
vt 0.0610 0.1818 0.0000
vt 2.3026 0.1818 0.0000
vt 2.3026 0.4545 0.0000
vt 0.0610 0.4545 0.0000
vt 0.0000 0.0000 0.0000
vt 0.0000 0.4545 0.0000
vt -1.8182 0.4545 0.0000
vt -1.8182 0.0000 0.0000
vt 0.0000 1.8182 0.0000
vt -2.3636 1.8182 0.0000
vt -2.3636 0.0000 0.0000
vt 1.7571 0.1818 0.0000
vt 1.7571 0.4545 0.0000
vt 2.3636 0.0000 0.0000
vt 2.3636 1.8182 0.0000
vt -2.3636 0.4545 0.0000
vt 1.8182 0.0000 0.0000
vt 1.8182 0.4545 0.0000
vt 2.3636 0.4545 0.0000
# 29 texture coords

g Group_001
usemtl wire_028089177
s off
f 17/30/7 18/31/7 19/32/7 20/33/7 
f 19/34/8 18/35/8 21/36/8 22/37/8 
f 19/35/9 22/36/9 23/38/9 20/39/9 
f 17/40/10 20/41/10 23/42/10 24/43/10 
f 25/44/9 26/45/9 27/46/9 28/47/9 
f 25/44/11 28/48/11 29/49/11 30/50/11 
f 21/43/12 18/40/12 17/51/12 24/52/12 
f 21/31/7 27/48/7 26/44/7 31/53/7 
f 22/32/7 21/31/7 31/53/7 23/33/7 
f 23/33/7 31/53/7 32/54/7 24/30/7 
f 24/30/7 32/54/7 27/48/7 21/31/7 
f 29/50/8 28/44/8 27/45/8 32/55/8 
f 31/45/12 30/44/12 29/56/12 32/57/12 
f 25/44/10 30/53/10 31/58/10 26/45/10 
# 14 polygons

